<?xml version="1.0" encoding="UTF-8" standalone="no"?>
<!DOCTYPE svg PUBLIC "-//W3C//DTD SVG 1.1//EN"
 "http://www.w3.org/Graphics/SVG/1.1/DTD/svg11.dtd">
<!-- Generated by graphviz version 2.43.0 (0)
 -->
<!-- Title: process Pages: 1 -->
<svg width="898pt" height="1737pt"
 viewBox="0.00 0.00 897.95 1737.00" xmlns="http://www.w3.org/2000/svg" xmlns:xlink="http://www.w3.org/1999/xlink">
<g id="graph0" class="graph" transform="scale(1 1) rotate(0) translate(4 1733)">
<title>process</title>
<polygon fill="white" stroke="transparent" points="-4,4 -4,-1733 893.95,-1733 893.95,4 -4,4"/>
<g id="clust1" class="cluster">
<title>cluster_input_data</title>
<text text-anchor="start" x="211" y="-1706.8" font-family="Times,serif" font-style="italic" font-size="14.00">input data</text>
</g>
<g id="clust2" class="cluster">
<title>cluster_data0</title>
</g>
<g id="clust3" class="cluster">
<title>cluster_data1</title>
</g>
<g id="clust4" class="cluster">
<title>cluster_data2</title>
</g>
<g id="clust5" class="cluster">
<title>cluster_output_data</title>
<text text-anchor="start" x="695" y="-68.8" font-family="Times,serif" font-style="italic" font-size="14.00">output data</text>
</g>
<g id="clust6" class="cluster">
<title>cluster_import</title>
<polygon fill="none" stroke="black" points="8,-1271 8,-1636 444,-1636 444,-1271 8,-1271"/>
<text text-anchor="start" x="201.5" y="-1621.8" font-family="Times,serif" font-style="italic" font-size="14.00">import</text>
</g>
<g id="clust7" class="cluster">
<title>cluster_stacking1</title>
<polygon fill="none" stroke="black" points="542,-980 542,-1199 742,-1199 742,-980 542,-980"/>
<text text-anchor="start" x="611.5" y="-1184.8" font-family="Times,serif" font-style="italic" font-size="14.00">stacking</text>
</g>
<g id="clust8" class="cluster">
<title>cluster_stacking2</title>
<polygon fill="none" stroke="black" points="267,-833 267,-908 491,-908 491,-833 267,-833"/>
<text text-anchor="start" x="348.5" y="-893.8" font-family="Times,serif" font-style="italic" font-size="14.00">stacking</text>
</g>
<g id="clust9" class="cluster">
<title>cluster_rassine</title>
<polygon fill="none" stroke="black" points="267,-534 267,-753 551,-753 551,-534 267,-534"/>
<text text-anchor="start" x="383" y="-738.8" font-family="Times,serif" font-style="italic" font-size="14.00">rassine</text>
</g>
<g id="clust10" class="cluster">
<title>cluster_matching</title>
<polygon fill="none" stroke="black" points="56,-91 56,-454 863,-454 863,-91 56,-91"/>
<text text-anchor="start" x="426" y="-439.8" font-family="Times,serif" font-style="italic" font-size="14.00">matching</text>
</g>
<!-- RAW/{name}.fits -->
<g id="node1" class="node">
<title>RAW/{name}.fits</title>
<text text-anchor="middle" x="407" y="-1667.3" font-family="Times,serif" font-size="14.00">RAW/{name}.fits</text>
</g>
<!-- preprocess_table -->
<g id="node11" class="node">
<title>preprocess_table</title>
<g id="a_node11"><a xlink:href="../cli/preprocess_table.html" xlink:title="preprocess_table" target="_top">
<polygon fill="none" stroke="black" points="289,-1605 151,-1605 151,-1569 289,-1569 289,-1605"/>
<text text-anchor="middle" x="220" y="-1583.3" font-family="Times,serif" font-size="14.00">preprocess_table</text>
</a>
</g>
</g>
<!-- RAW/{name}.fits&#45;&gt;preprocess_table -->
<g id="edge1" class="edge">
<title>RAW/{name}.fits&#45;&gt;preprocess_table</title>
<path fill="none" stroke="black" stroke-dasharray="5,2" d="M367.8,-1652.81C338.78,-1640.08 299.08,-1622.68 268.13,-1609.11"/>
<polygon fill="black" stroke="black" points="269.39,-1605.84 258.83,-1605.03 266.58,-1612.25 269.39,-1605.84"/>
</g>
<!-- preprocess_import -->
<g id="node13" class="node">
<title>preprocess_import</title>
<g id="a_node13"><a xlink:href="../cli/preprocess_import.html" xlink:title="preprocess_import" target="_top">
<polygon fill="none" stroke="black" points="356,-1459 206,-1459 206,-1423 356,-1423 356,-1459"/>
<text text-anchor="middle" x="281" y="-1437.3" font-family="Times,serif" font-size="14.00">preprocess_import</text>
</a>
</g>
</g>
<!-- RAW/{name}.fits&#45;&gt;preprocess_import -->
<g id="edge5" class="edge">
<title>RAW/{name}.fits&#45;&gt;preprocess_import</title>
<path fill="none" stroke="black" d="M410.13,-1652.99C415.32,-1619.43 422.03,-1543.74 388,-1495 378.57,-1481.49 364.67,-1471.26 350,-1463.57"/>
<polygon fill="black" stroke="black" points="351.32,-1460.32 340.79,-1459.11 348.26,-1466.62 351.32,-1460.32"/>
</g>
<!-- DACE_TABLE/Dace_extracted_table.csv -->
<g id="node2" class="node">
<title>DACE_TABLE/Dace_extracted_table.csv</title>
<g id="a_node2"><a xlink:href="../_autosummary/rassine.imports.types.DACE.html#rassine.imports.types.DACE" xlink:title="DACE_TABLE/Dace_extracted_table.csv&lt;br/&gt;&lt;font color=&quot;#444444&quot;&gt;rassine.imports.types.DACE&lt;/font&gt;" target="_top">
<text text-anchor="start" x="27.5" y="-1674.8" font-family="Times,serif" font-size="14.00">DACE_TABLE/Dace_extracted_table.csv</text>
<text text-anchor="start" x="68" y="-1659.8" font-family="Times,serif" font-size="14.00" fill="#444444">rassine.imports.types.DACE</text>
</a>
</g>
</g>
<!-- DACE_TABLE/Dace_extracted_table.csv&#45;&gt;preprocess_table -->
<g id="edge2" class="edge">
<title>DACE_TABLE/Dace_extracted_table.csv&#45;&gt;preprocess_table</title>
<path fill="none" stroke="black" d="M180.32,-1651.8C187.31,-1640.56 196.38,-1625.97 204.09,-1613.58"/>
<polygon fill="black" stroke="black" points="207.1,-1615.37 209.41,-1605.03 201.16,-1611.67 207.1,-1615.37"/>
</g>
<!-- PREPROCESSED/{name}.p (bis) -->
<g id="node3" class="node">
<title>PREPROCESSED/{name}.p (bis)</title>
<text text-anchor="middle" x="386" y="-1146.3" font-family="Times,serif" font-size="14.00">PREPROCESSED/{name}.p</text>
</g>
<!-- stacking_stack -->
<g id="node19" class="node">
<title>stacking_stack</title>
<g id="a_node19"><a xlink:href="../cli/stacking_stack.html" xlink:title="stacking_stack" target="_top">
<polygon fill="none" stroke="black" points="671.5,-1024 550.5,-1024 550.5,-988 671.5,-988 671.5,-1024"/>
<text text-anchor="middle" x="611" y="-1002.3" font-family="Times,serif" font-size="14.00">stacking_stack</text>
</a>
</g>
</g>
<!-- PREPROCESSED/{name}.p (bis)&#45;&gt;stacking_stack -->
<g id="edge16" class="edge">
<title>PREPROCESSED/{name}.p (bis)&#45;&gt;stacking_stack</title>
<path fill="none" stroke="black" d="M407.33,-1131.87C431.14,-1113.12 471.18,-1082.71 508,-1060 526.22,-1048.76 547.09,-1037.71 565.27,-1028.62"/>
<polygon fill="black" stroke="black" points="567.08,-1031.63 574.5,-1024.06 563.98,-1025.36 567.08,-1031.63"/>
</g>
<!-- individual_reinterpolated.csv -->
<g id="node4" class="node">
<title>individual_reinterpolated.csv</title>
<text text-anchor="middle" x="390" y="-1221.3" font-family="Times,serif" font-size="14.00">individual_reinterpolated.csv</text>
</g>
<!-- stacking_create_groups -->
<g id="node17" class="node">
<title>stacking_create_groups</title>
<g id="a_node17"><a xlink:href="../cli/stacking_create_groups.html" xlink:title="stacking_create_groups" target="_top">
<polygon fill="none" stroke="black" points="734.5,-1168 549.5,-1168 549.5,-1132 734.5,-1132 734.5,-1168"/>
<text text-anchor="middle" x="642" y="-1146.3" font-family="Times,serif" font-size="14.00">stacking_create_groups</text>
</a>
</g>
</g>
<!-- individual_reinterpolated.csv&#45;&gt;stacking_create_groups -->
<g id="edge12" class="edge">
<title>individual_reinterpolated.csv&#45;&gt;stacking_create_groups</title>
<path fill="none" stroke="black" d="M502.29,-1207.78C513.77,-1205.23 525.18,-1202.32 536,-1199 558.08,-1192.23 581.57,-1181.94 600.81,-1172.62"/>
<polygon fill="black" stroke="black" points="602.47,-1175.7 609.89,-1168.14 599.38,-1169.43 602.47,-1175.7"/>
</g>
<!-- individual_reinterpolated.csv&#45;&gt;stacking_stack -->
<g id="edge15" class="edge">
<title>individual_reinterpolated.csv&#45;&gt;stacking_stack</title>
<path fill="none" stroke="black" d="M487.91,-1206.96C494.52,-1204.58 499.82,-1201.93 503,-1199 550.57,-1155.19 509.84,-1113.61 546,-1060 553.66,-1048.65 564.46,-1038.49 575.06,-1030.17"/>
<polygon fill="black" stroke="black" points="577.16,-1032.97 583.07,-1024.18 572.97,-1027.36 577.16,-1032.97"/>
</g>
<!-- stacked_basic.csv -->
<g id="node5" class="node">
<title>stacked_basic.csv</title>
<text text-anchor="middle" x="759" y="-930.3" font-family="Times,serif" font-size="14.00">stacked_basic.csv</text>
</g>
<!-- stacking_master_spectrum -->
<g id="node20" class="node">
<title>stacking_master_spectrum</title>
<g id="a_node20"><a xlink:href="../cli/stacking_master_spectrum.html" xlink:title="stacking_master_spectrum" target="_top">
<polygon fill="none" stroke="black" points="483,-877 275,-877 275,-841 483,-841 483,-877"/>
<text text-anchor="middle" x="379" y="-855.3" font-family="Times,serif" font-size="14.00">stacking_master_spectrum</text>
</a>
</g>
</g>
<!-- stacked_basic.csv&#45;&gt;stacking_master_spectrum -->
<g id="edge20" class="edge">
<title>stacked_basic.csv&#45;&gt;stacking_master_spectrum</title>
<path fill="none" stroke="black" d="M687.11,-917.28C684.04,-916.81 680.99,-916.38 678,-916 597.23,-905.83 574.48,-925.61 495,-908 469.42,-902.33 442.29,-891.4 420.7,-881.4"/>
<polygon fill="black" stroke="black" points="422.04,-878.17 411.5,-877.05 419.04,-884.49 422.04,-878.17"/>
</g>
<!-- rassine2 -->
<g id="node22" class="node">
<title>rassine2</title>
<g id="a_node22"><a xlink:href="../cli/rassine.html" xlink:title="rassine" target="_top">
<polygon fill="none" stroke="black" points="343,-578 275,-578 275,-542 343,-542 343,-578"/>
<text text-anchor="middle" x="309" y="-556.3" font-family="Times,serif" font-size="14.00">rassine</text>
</a>
</g>
</g>
<!-- stacked_basic.csv&#45;&gt;rassine2 -->
<g id="edge27" class="edge">
<title>stacked_basic.csv&#45;&gt;rassine2</title>
<path fill="none" stroke="black" d="M687.13,-917.19C684.05,-916.74 681,-916.34 678,-916 666.54,-914.7 271.6,-915.68 263,-908 222.86,-872.17 247,-841.81 247,-788 247,-788 247,-788 247,-703 247,-662.55 248.55,-650.49 266,-614 270.8,-603.95 277.87,-594.14 284.9,-585.75"/>
<polygon fill="black" stroke="black" points="287.58,-587.99 291.55,-578.17 282.32,-583.38 287.58,-587.99"/>
</g>
<!-- matching_anchors_scan -->
<g id="node24" class="node">
<title>matching_anchors_scan</title>
<g id="a_node24"><a xlink:href="../cli/matching_anchors_scan.html" xlink:title="matching_anchors_scan" target="_top">
<polygon fill="none" stroke="black" points="743.5,-423 558.5,-423 558.5,-387 743.5,-387 743.5,-423"/>
<text text-anchor="middle" x="651" y="-401.3" font-family="Times,serif" font-size="14.00">matching_anchors_scan</text>
</a>
</g>
</g>
<!-- stacked_basic.csv&#45;&gt;matching_anchors_scan -->
<g id="edge29" class="edge">
<title>stacked_basic.csv&#45;&gt;matching_anchors_scan</title>
<path fill="none" stroke="black" d="M787,-915.7C789.31,-913.35 791.38,-910.79 793,-908 819.98,-861.58 807,-841.7 807,-788 807,-788 807,-788 807,-559 807,-515.31 818.37,-496.06 791,-462 778.45,-446.38 760.88,-435.09 742.42,-426.94"/>
<polygon fill="black" stroke="black" points="743.59,-423.64 733.01,-423.07 740.93,-430.11 743.59,-423.64"/>
</g>
<!-- matching_anchors_filter1 -->
<g id="node26" class="node">
<title>matching_anchors_filter1</title>
<g id="a_node26"><a xlink:href="../cli/matching_anchors_filter.html" xlink:title="matching_anchors_filter" target="_top">
<polygon fill="none" stroke="black" points="784,-279 596,-279 596,-243 784,-243 784,-279"/>
<text text-anchor="middle" x="690" y="-257.3" font-family="Times,serif" font-size="14.00">matching_anchors_filter</text>
</a>
</g>
</g>
<!-- stacked_basic.csv&#45;&gt;matching_anchors_filter1 -->
<g id="edge33" class="edge">
<title>stacked_basic.csv&#45;&gt;matching_anchors_filter1</title>
<path fill="none" stroke="black" d="M822.77,-915.95C825.82,-913.63 828.6,-910.99 831,-908 864.61,-866.13 845,-841.7 845,-788 845,-788 845,-788 845,-404 845,-346.64 786.57,-306.19 741.46,-283.5"/>
<polygon fill="black" stroke="black" points="742.88,-280.3 732.35,-279.07 739.81,-286.59 742.88,-280.3"/>
</g>
<!-- matching_diff -->
<g id="node31" class="node">
<title>matching_diff</title>
<g id="a_node31"><a xlink:href="../cli/matching_diff.html" xlink:title="matching_diff" target="_top">
<polygon fill="none" stroke="black" points="793.5,-135 680.5,-135 680.5,-99 793.5,-99 793.5,-135"/>
<text text-anchor="middle" x="737" y="-113.3" font-family="Times,serif" font-size="14.00">matching_diff</text>
</a>
</g>
</g>
<!-- stacked_basic.csv&#45;&gt;matching_diff -->
<g id="edge43" class="edge">
<title>stacked_basic.csv&#45;&gt;matching_diff</title>
<path fill="none" stroke="black" d="M830.64,-923.31C847.94,-919.54 863.14,-914.52 869,-908 904.88,-868.05 883,-841.7 883,-788 883,-788 883,-788 883,-260 883,-219.55 889.84,-202.12 864,-171 848.58,-152.43 825.55,-140.26 803.31,-132.33"/>
<polygon fill="black" stroke="black" points="804.11,-128.91 793.52,-129.08 801.91,-135.55 804.11,-128.91"/>
</g>
<!-- STACKED/{name}.p -->
<g id="node6" class="node">
<title>STACKED/{name}.p</title>
<text text-anchor="middle" x="588" y="-930.3" font-family="Times,serif" font-size="14.00">STACKED/{name}.p</text>
</g>
<!-- STACKED/{name}.p&#45;&gt;stacking_master_spectrum -->
<g id="edge19" class="edge">
<title>STACKED/{name}.p&#45;&gt;stacking_master_spectrum</title>
<path fill="none" stroke="black" d="M520.38,-915.93C511.79,-913.44 503.15,-910.77 495,-908 471.91,-900.16 446.85,-890 425.95,-881.06"/>
<polygon fill="black" stroke="black" points="427.23,-877.8 416.67,-877.04 424.46,-884.22 427.23,-877.8"/>
</g>
<!-- STACKED/{name}.p&#45;&gt;rassine2 -->
<g id="edge25" class="edge">
<title>STACKED/{name}.p&#45;&gt;rassine2</title>
<path fill="none" stroke="black" d="M507,-932.4C408.58,-930.88 253.09,-925.68 233,-908 192.18,-872.06 209,-842.39 209,-788 209,-788 209,-788 209,-703 209,-662.03 209.44,-647.52 233,-614 241.64,-601.7 254.1,-591.32 266.44,-583.1"/>
<polygon fill="black" stroke="black" points="268.32,-586.05 274.91,-577.75 264.59,-580.13 268.32,-586.05"/>
</g>
<!-- MASTER/Master_spectrum_{tag}.p -->
<g id="node7" class="node">
<title>MASTER/Master_spectrum_{tag}.p</title>
<text text-anchor="middle" x="643" y="-783.3" font-family="Times,serif" font-size="14.00">MASTER/Master_spectrum_{tag}.p</text>
</g>
<!-- rassine1 -->
<g id="node21" class="node">
<title>rassine1</title>
<g id="a_node21"><a xlink:href="../cli/rassine.html" xlink:title="rassine" target="_top">
<polygon fill="none" stroke="black" points="543,-722 475,-722 475,-686 543,-686 543,-722"/>
<text text-anchor="middle" x="509" y="-700.3" font-family="Times,serif" font-size="14.00">rassine</text>
</a>
</g>
</g>
<!-- MASTER/Master_spectrum_{tag}.p&#45;&gt;rassine1 -->
<g id="edge22" class="edge">
<title>MASTER/Master_spectrum_{tag}.p&#45;&gt;rassine1</title>
<path fill="none" stroke="black" d="M614.58,-768.82C594.6,-756.74 567.66,-740.46 546,-727.36"/>
<polygon fill="black" stroke="black" points="547.75,-724.33 537.38,-722.15 544.12,-730.32 547.75,-724.33"/>
</g>
<!-- MASTER/RASSINE_Master_spectrum_{tag}.p -->
<g id="node8" class="node">
<title>MASTER/RASSINE_Master_spectrum_{tag}.p</title>
<text text-anchor="middle" x="607" y="-484.3" font-family="Times,serif" font-size="14.00">MASTER/RASSINE_Master_spectrum_{tag}.p</text>
</g>
<!-- MASTER/RASSINE_Master_spectrum_{tag}.p&#45;&gt;matching_anchors_scan -->
<g id="edge31" class="edge">
<title>MASTER/RASSINE_Master_spectrum_{tag}.p&#45;&gt;matching_anchors_scan</title>
<path fill="none" stroke="black" stroke-dasharray="5,2" d="M616.33,-469.82C622.28,-458.87 630.11,-444.46 636.82,-432.11"/>
<polygon fill="black" stroke="black" points="639.98,-433.61 641.68,-423.15 633.83,-430.27 639.98,-433.61"/>
</g>
<!-- matching_anchors_filter2 -->
<g id="node29" class="node">
<title>matching_anchors_filter2</title>
<g id="a_node29"><a xlink:href="../cli/matching_anchors_filter.html" xlink:title="matching_anchors_filter" target="_top">
<polygon fill="none" stroke="black" points="578,-279 390,-279 390,-243 578,-243 578,-279"/>
<text text-anchor="middle" x="484" y="-257.3" font-family="Times,serif" font-size="14.00">matching_anchors_filter</text>
</a>
</g>
</g>
<!-- MASTER/RASSINE_Master_spectrum_{tag}.p&#45;&gt;matching_anchors_filter2 -->
<g id="edge38" class="edge">
<title>MASTER/RASSINE_Master_spectrum_{tag}.p&#45;&gt;matching_anchors_filter2</title>
<path fill="none" stroke="black" d="M568.51,-469.84C561.65,-465.45 555.09,-460.18 550,-454 509.48,-404.76 493.27,-329.23 487.25,-289.16"/>
<polygon fill="black" stroke="black" points="490.69,-288.49 485.83,-279.08 483.75,-289.46 490.69,-288.49"/>
</g>
<!-- STACKED/RASSINE_{name}.p -->
<g id="node9" class="node">
<title>STACKED/RASSINE_{name}.p</title>
<text text-anchor="middle" x="298" y="-484.3" font-family="Times,serif" font-size="14.00">STACKED/RASSINE_{name}.p</text>
</g>
<!-- STACKED/RASSINE_{name}.p&#45;&gt;matching_anchors_scan -->
<g id="edge30" class="edge">
<title>STACKED/RASSINE_{name}.p&#45;&gt;matching_anchors_scan</title>
<path fill="none" stroke="black" d="M380.82,-469.94C395.82,-467.1 411.35,-464.33 426,-462 454.75,-457.43 462.51,-459.98 491,-454 524.91,-446.88 562.03,-435.95 591.97,-426.32"/>
<polygon fill="black" stroke="black" points="593.4,-429.53 601.83,-423.11 591.24,-422.87 593.4,-429.53"/>
</g>
<!-- STACKED/RASSINE_{name}.p&#45;&gt;matching_anchors_filter1 -->
<g id="edge34" class="edge">
<title>STACKED/RASSINE_{name}.p&#45;&gt;matching_anchors_filter1</title>
<path fill="none" stroke="black" d="M318.3,-469.77C358.65,-436.22 452.77,-361.34 542,-315 567.02,-302.01 595.95,-290.87 621.55,-282.21"/>
<polygon fill="black" stroke="black" points="622.8,-285.48 631.19,-279.01 620.6,-278.84 622.8,-285.48"/>
</g>
<!-- STACKED/RASSINE_{name}.p (ter) -->
<g id="node10" class="node">
<title>STACKED/RASSINE_{name}.p (ter)</title>
<text text-anchor="middle" x="737" y="-30.3" font-family="Times,serif" font-size="14.00">STACKED/RASSINE_{name}.p</text>
</g>
<!-- individual_basic.csv -->
<g id="node12" class="node">
<title>individual_basic.csv</title>
<g id="a_node12"><a xlink:href="../_autosummary/rassine.imports.types.IndividualBasicRow.html" xlink:title="individual_basic.csv&lt;br/&gt;&lt;font color=&quot;#444444&quot;&gt;rassine.imports.types.IndividualBasicRow&lt;/font&gt;" target="_top">
<text text-anchor="start" x="149" y="-1517.8" font-family="Times,serif" font-size="14.00">individual_basic.csv</text>
<text text-anchor="start" x="69.5" y="-1502.8" font-family="Times,serif" font-size="14.00" fill="#444444">rassine.imports.types.IndividualBasicRow</text>
</a>
</g>
</g>
<!-- preprocess_table&#45;&gt;individual_basic.csv -->
<g id="edge3" class="edge">
<title>preprocess_table&#45;&gt;individual_basic.csv</title>
<path fill="none" stroke="black" d="M220,-1568.81C220,-1561.11 220,-1551.82 220,-1543.15"/>
<polygon fill="black" stroke="black" points="223.5,-1543.02 220,-1533.02 216.5,-1543.02 223.5,-1543.02"/>
</g>
<!-- individual_basic.csv&#45;&gt;preprocess_import -->
<g id="edge4" class="edge">
<title>individual_basic.csv&#45;&gt;preprocess_import</title>
<path fill="none" stroke="black" d="M235.71,-1494.72C243.03,-1486.2 251.84,-1475.94 259.74,-1466.74"/>
<polygon fill="black" stroke="black" points="262.53,-1468.87 266.39,-1459 257.22,-1464.31 262.53,-1468.87"/>
</g>
<!-- PREPROCESSED/{name}.p -->
<g id="node14" class="node">
<title>PREPROCESSED/{name}.p</title>
<text text-anchor="middle" x="124" y="-1365.3" font-family="Times,serif" font-size="14.00">PREPROCESSED/{name}.p</text>
</g>
<!-- preprocess_import&#45;&gt;PREPROCESSED/{name}.p -->
<g id="edge6" class="edge">
<title>preprocess_import&#45;&gt;PREPROCESSED/{name}.p</title>
<path fill="none" stroke="black" d="M242.59,-1422.88C221.13,-1413.31 194.2,-1401.3 171.43,-1391.15"/>
<polygon fill="black" stroke="black" points="172.84,-1387.94 162.28,-1387.07 169.99,-1394.34 172.84,-1387.94"/>
</g>
<!-- individual_imported.csv -->
<g id="node15" class="node">
<title>individual_imported.csv</title>
<text text-anchor="middle" x="343" y="-1365.3" font-family="Times,serif" font-size="14.00">individual_imported.csv</text>
</g>
<!-- preprocess_import&#45;&gt;individual_imported.csv -->
<g id="edge7" class="edge">
<title>preprocess_import&#45;&gt;individual_imported.csv</title>
<path fill="none" stroke="black" d="M296.33,-1422.7C303.76,-1414.3 312.82,-1404.07 320.98,-1394.86"/>
<polygon fill="black" stroke="black" points="323.84,-1396.91 327.85,-1387.1 318.6,-1392.27 323.84,-1396.91"/>
</g>
<!-- reinterpolate -->
<g id="node16" class="node">
<title>reinterpolate</title>
<g id="a_node16"><a xlink:href="../cli/reinterpolate.html" xlink:title="reinterpolate" target="_top">
<polygon fill="none" stroke="black" points="375,-1315 265,-1315 265,-1279 375,-1279 375,-1315"/>
<text text-anchor="middle" x="320" y="-1293.3" font-family="Times,serif" font-size="14.00">reinterpolate</text>
</a>
</g>
</g>
<!-- PREPROCESSED/{name}.p&#45;&gt;reinterpolate -->
<g id="edge9" class="edge">
<title>PREPROCESSED/{name}.p&#45;&gt;reinterpolate</title>
<path fill="none" stroke="black" d="M171.7,-1350.97C199.08,-1341.19 233.66,-1328.84 262.53,-1318.52"/>
<polygon fill="black" stroke="black" points="263.85,-1321.77 272.09,-1315.11 261.5,-1315.18 263.85,-1321.77"/>
</g>
<!-- individual_imported.csv&#45;&gt;reinterpolate -->
<g id="edge8" class="edge">
<title>individual_imported.csv&#45;&gt;reinterpolate</title>
<path fill="none" stroke="black" d="M337.31,-1350.7C334.75,-1342.9 331.67,-1333.51 328.82,-1324.83"/>
<polygon fill="black" stroke="black" points="332.07,-1323.51 325.62,-1315.1 325.42,-1325.7 332.07,-1323.51"/>
</g>
<!-- reinterpolate&#45;&gt;PREPROCESSED/{name}.p (bis) -->
<g id="edge10" class="edge">
<title>reinterpolate&#45;&gt;PREPROCESSED/{name}.p (bis)</title>
<path fill="none" stroke="black" d="M292.49,-1278.87C283.24,-1271.54 274,-1262.09 269,-1251 260.96,-1233.18 258.58,-1223.55 269,-1207 278.62,-1191.73 293.69,-1180.53 309.85,-1172.35"/>
<polygon fill="black" stroke="black" points="311.33,-1175.52 318.91,-1168.11 308.37,-1169.18 311.33,-1175.52"/>
</g>
<!-- reinterpolate&#45;&gt;individual_reinterpolated.csv -->
<g id="edge11" class="edge">
<title>reinterpolate&#45;&gt;individual_reinterpolated.csv</title>
<path fill="none" stroke="black" d="M337.3,-1278.7C345.86,-1270.14 356.34,-1259.66 365.7,-1250.3"/>
<polygon fill="black" stroke="black" points="368.3,-1252.65 372.9,-1243.1 363.35,-1247.7 368.3,-1252.65"/>
</g>
<!-- individual_group.csv -->
<g id="node18" class="node">
<title>individual_group.csv</title>
<text text-anchor="middle" x="637" y="-1074.3" font-family="Times,serif" font-size="14.00">individual_group.csv</text>
</g>
<!-- stacking_create_groups&#45;&gt;individual_group.csv -->
<g id="edge13" class="edge">
<title>stacking_create_groups&#45;&gt;individual_group.csv</title>
<path fill="none" stroke="black" d="M640.76,-1131.7C640.21,-1123.98 639.55,-1114.71 638.94,-1106.11"/>
<polygon fill="black" stroke="black" points="642.43,-1105.83 638.22,-1096.1 635.44,-1106.33 642.43,-1105.83"/>
</g>
<!-- individual_group.csv&#45;&gt;stacking_stack -->
<g id="edge14" class="edge">
<title>individual_group.csv&#45;&gt;stacking_stack</title>
<path fill="none" stroke="black" d="M630.57,-1059.7C627.64,-1051.81 624.11,-1042.3 620.86,-1033.55"/>
<polygon fill="black" stroke="black" points="624.12,-1032.26 617.35,-1024.1 617.55,-1034.7 624.12,-1032.26"/>
</g>
<!-- stacking_stack&#45;&gt;stacked_basic.csv -->
<g id="edge17" class="edge">
<title>stacking_stack&#45;&gt;stacked_basic.csv</title>
<path fill="none" stroke="black" d="M647.2,-987.88C667.26,-978.39 692.37,-966.51 713.71,-956.42"/>
<polygon fill="black" stroke="black" points="715.37,-959.51 722.91,-952.07 712.38,-953.18 715.37,-959.51"/>
</g>
<!-- stacking_stack&#45;&gt;STACKED/{name}.p -->
<g id="edge18" class="edge">
<title>stacking_stack&#45;&gt;STACKED/{name}.p</title>
<path fill="none" stroke="black" d="M605.31,-987.7C602.75,-979.9 599.67,-970.51 596.82,-961.83"/>
<polygon fill="black" stroke="black" points="600.07,-960.51 593.62,-952.1 593.42,-962.7 600.07,-960.51"/>
</g>
<!-- stacking_master_spectrum&#45;&gt;MASTER/Master_spectrum_{tag}.p -->
<g id="edge21" class="edge">
<title>stacking_master_spectrum&#45;&gt;MASTER/Master_spectrum_{tag}.p</title>
<path fill="none" stroke="black" d="M443.24,-840.97C481.09,-830.93 529.14,-818.19 568.62,-807.72"/>
<polygon fill="black" stroke="black" points="569.7,-811.06 578.47,-805.11 567.9,-804.29 569.7,-811.06"/>
</g>
<!-- rassine1&#45;&gt;MASTER/RASSINE_Master_spectrum_{tag}.p -->
<g id="edge24" class="edge">
<title>rassine1&#45;&gt;MASTER/RASSINE_Master_spectrum_{tag}.p</title>
<path fill="none" stroke="black" d="M525.41,-685.98C534.24,-676.11 544.77,-663.06 552,-650 576.39,-605.92 592.69,-549.12 600.86,-516.11"/>
<polygon fill="black" stroke="black" points="604.29,-516.82 603.22,-506.27 597.48,-515.18 604.29,-516.82"/>
</g>
<!-- anchor_Master_spectrum_{tag}.ini -->
<g id="node23" class="node">
<title>anchor_Master_spectrum_{tag}.ini</title>
<text text-anchor="middle" x="409" y="-628.3" font-family="Times,serif" font-size="14.00">anchor_Master_spectrum_{tag}.ini</text>
</g>
<!-- rassine1&#45;&gt;anchor_Master_spectrum_{tag}.ini -->
<g id="edge23" class="edge">
<title>rassine1&#45;&gt;anchor_Master_spectrum_{tag}.ini</title>
<path fill="none" stroke="black" d="M484.54,-685.88C471.7,-676.89 455.8,-665.76 441.91,-656.03"/>
<polygon fill="black" stroke="black" points="443.76,-653.06 433.56,-650.19 439.74,-658.79 443.76,-653.06"/>
</g>
<!-- rassine2&#45;&gt;STACKED/RASSINE_{name}.p -->
<g id="edge28" class="edge">
<title>rassine2&#45;&gt;STACKED/RASSINE_{name}.p</title>
<path fill="none" stroke="black" d="M306.28,-541.7C305.07,-533.98 303.61,-524.71 302.26,-516.11"/>
<polygon fill="black" stroke="black" points="305.7,-515.44 300.69,-506.1 298.78,-516.53 305.7,-515.44"/>
</g>
<!-- anchor_Master_spectrum_{tag}.ini&#45;&gt;rassine2 -->
<g id="edge26" class="edge">
<title>anchor_Master_spectrum_{tag}.ini&#45;&gt;rassine2</title>
<path fill="none" stroke="black" d="M384.54,-613.88C371.7,-604.89 355.8,-593.76 341.91,-584.03"/>
<polygon fill="black" stroke="black" points="343.76,-581.06 333.56,-578.19 339.74,-586.79 343.76,-581.06"/>
</g>
<!-- MASTER/Master_tool_{tag}.p -->
<g id="node25" class="node">
<title>MASTER/Master_tool_{tag}.p</title>
<text text-anchor="middle" x="666" y="-329.3" font-family="Times,serif" font-size="14.00">MASTER/Master_tool_{tag}.p</text>
</g>
<!-- matching_anchors_scan&#45;&gt;MASTER/Master_tool_{tag}.p -->
<g id="edge32" class="edge">
<title>matching_anchors_scan&#45;&gt;MASTER/Master_tool_{tag}.p</title>
<path fill="none" stroke="black" d="M654.71,-386.7C656.36,-378.98 658.35,-369.71 660.19,-361.11"/>
<polygon fill="black" stroke="black" points="663.66,-361.62 662.33,-351.1 656.82,-360.15 663.66,-361.62"/>
</g>
<!-- MASTER/Master_tool_{tag}.p&#45;&gt;matching_anchors_filter1 -->
<g id="edge35" class="edge">
<title>MASTER/Master_tool_{tag}.p&#45;&gt;matching_anchors_filter1</title>
<path fill="none" stroke="black" d="M671.93,-314.7C674.61,-306.9 677.83,-297.51 680.8,-288.83"/>
<polygon fill="black" stroke="black" points="684.2,-289.7 684.14,-279.1 677.58,-287.43 684.2,-289.7"/>
</g>
<!-- MASTER/Master_tool_{tag}.p&#45;&gt;matching_anchors_filter2 -->
<g id="edge39" class="edge">
<title>MASTER/Master_tool_{tag}.p&#45;&gt;matching_anchors_filter2</title>
<path fill="none" stroke="black" d="M621.48,-314.88C596.27,-305.18 564.55,-292.98 537.93,-282.74"/>
<polygon fill="black" stroke="black" points="538.97,-279.39 528.38,-279.07 536.45,-285.92 538.97,-279.39"/>
</g>
<!-- STACKED/RASSINE_{name}.p (bis) -->
<g id="node27" class="node">
<title>STACKED/RASSINE_{name}.p (bis)</title>
<text text-anchor="middle" x="737" y="-185.3" font-family="Times,serif" font-size="14.00">STACKED/RASSINE_{name}.p</text>
</g>
<!-- matching_anchors_filter1&#45;&gt;STACKED/RASSINE_{name}.p (bis) -->
<g id="edge36" class="edge">
<title>matching_anchors_filter1&#45;&gt;STACKED/RASSINE_{name}.p (bis)</title>
<path fill="none" stroke="black" d="M701.62,-242.7C707.14,-234.47 713.85,-224.48 719.93,-215.42"/>
<polygon fill="black" stroke="black" points="722.85,-217.36 725.52,-207.1 717.04,-213.46 722.85,-217.36"/>
</g>
<!-- matching_anchors.csv -->
<g id="node28" class="node">
<title>matching_anchors.csv</title>
<text text-anchor="middle" x="514" y="-185.3" font-family="Times,serif" font-size="14.00">matching_anchors.csv</text>
</g>
<!-- matching_anchors_filter1&#45;&gt;matching_anchors.csv -->
<g id="edge37" class="edge">
<title>matching_anchors_filter1&#45;&gt;matching_anchors.csv</title>
<path fill="none" stroke="black" d="M646.95,-242.88C622.67,-233.22 592.16,-221.09 566.49,-210.88"/>
<polygon fill="black" stroke="black" points="567.5,-207.51 556.91,-207.07 564.91,-214.02 567.5,-207.51"/>
</g>
<!-- STACKED/RASSINE_{name}.p (bis)&#45;&gt;matching_diff -->
<g id="edge44" class="edge">
<title>STACKED/RASSINE_{name}.p (bis)&#45;&gt;matching_diff</title>
<path fill="none" stroke="black" d="M737,-170.7C737,-162.98 737,-153.71 737,-145.11"/>
<polygon fill="black" stroke="black" points="740.5,-145.1 737,-135.1 733.5,-145.1 740.5,-145.1"/>
</g>
<!-- matching_anchors_filter2&#45;&gt;matching_anchors.csv -->
<g id="edge41" class="edge">
<title>matching_anchors_filter2&#45;&gt;matching_anchors.csv</title>
<path fill="none" stroke="black" d="M491.42,-242.7C494.79,-234.81 498.87,-225.3 502.62,-216.55"/>
<polygon fill="black" stroke="black" points="505.95,-217.67 506.67,-207.1 499.51,-214.92 505.95,-217.67"/>
</g>
<!-- MASTER/RASSINE_Master_spectrum_{tag}.p (bis) -->
<g id="node30" class="node">
<title>MASTER/RASSINE_Master_spectrum_{tag}.p (bis)</title>
<text text-anchor="middle" x="236" y="-185.3" font-family="Times,serif" font-size="14.00">MASTER/RASSINE_Master_spectrum_{tag}.p</text>
</g>
<!-- matching_anchors_filter2&#45;&gt;MASTER/RASSINE_Master_spectrum_{tag}.p (bis) -->
<g id="edge40" class="edge">
<title>matching_anchors_filter2&#45;&gt;MASTER/RASSINE_Master_spectrum_{tag}.p (bis)</title>
<path fill="none" stroke="black" d="M423.65,-242.97C388.25,-232.97 343.34,-220.3 306.34,-209.85"/>
<polygon fill="black" stroke="black" points="307.2,-206.46 296.62,-207.11 305.29,-213.2 307.2,-206.46"/>
</g>
<!-- MASTER/RASSINE_Master_spectrum_{tag}.p (bis)&#45;&gt;matching_diff -->
<g id="edge42" class="edge">
<title>MASTER/RASSINE_Master_spectrum_{tag}.p (bis)&#45;&gt;matching_diff</title>
<path fill="none" stroke="black" d="M357.92,-170.97C456.05,-157.26 590.29,-138.5 669.89,-127.38"/>
<polygon fill="black" stroke="black" points="670.85,-130.78 680.27,-125.93 669.89,-123.84 670.85,-130.78"/>
</g>
<!-- matching_diff&#45;&gt;STACKED/RASSINE_{name}.p (ter) -->
<g id="edge45" class="edge">
<title>matching_diff&#45;&gt;STACKED/RASSINE_{name}.p (ter)</title>
<path fill="none" stroke="black" d="M737,-98.82C737,-88.19 737,-74.31 737,-62.2"/>
<polygon fill="black" stroke="black" points="740.5,-62.15 737,-52.15 733.5,-62.15 740.5,-62.15"/>
</g>
</g>
</svg>
