<?xml version="1.0" encoding="UTF-8" standalone="no"?>
<!DOCTYPE svg PUBLIC "-//W3C//DTD SVG 1.1//EN"
 "http://www.w3.org/Graphics/SVG/1.1/DTD/svg11.dtd">
<!-- Generated by graphviz version 2.43.0 (0)
 -->
<!-- Title: process Pages: 1 -->
<svg width="1050pt" height="1758pt"
 viewBox="0.00 0.00 1049.56 1758.00" xmlns="http://www.w3.org/2000/svg" xmlns:xlink="http://www.w3.org/1999/xlink">
<g id="graph0" class="graph" transform="scale(1 1) rotate(0) translate(4 1754)">
<title>process</title>
<polygon fill="white" stroke="transparent" points="-4,4 -4,-1754 1045.56,-1754 1045.56,4 -4,4"/>
<g id="clust1" class="cluster">
<title>cluster_input_data</title>
<text text-anchor="start" x="388" y="-1727.8" font-family="Times,serif" font-style="italic" font-size="14.00">input data</text>
</g>
<g id="clust2" class="cluster">
<title>cluster_data0</title>
</g>
<g id="clust3" class="cluster">
<title>cluster_data1</title>
</g>
<g id="clust4" class="cluster">
<title>cluster_data2</title>
</g>
<g id="clust5" class="cluster">
<title>cluster_output_data</title>
<text text-anchor="start" x="827" y="-70.8" font-family="Times,serif" font-style="italic" font-size="14.00">output data</text>
</g>
<g id="clust6" class="cluster">
<title>cluster_import</title>
<polygon fill="none" stroke="black" points="36,-1290 36,-1657 770,-1657 770,-1290 36,-1290"/>
<text text-anchor="start" x="378.5" y="-1642.8" font-family="Times,serif" font-style="italic" font-size="14.00">import</text>
</g>
<g id="clust7" class="cluster">
<title>cluster_stacking1</title>
<polygon fill="none" stroke="black" points="545,-994 545,-1216 881,-1216 881,-994 545,-994"/>
<text text-anchor="start" x="682.5" y="-1201.8" font-family="Times,serif" font-style="italic" font-size="14.00">stacking</text>
</g>
<g id="clust8" class="cluster">
<title>cluster_stacking2</title>
<polygon fill="none" stroke="black" points="144,-845 144,-920 368,-920 368,-845 144,-845"/>
<text text-anchor="start" x="225.5" y="-905.8" font-family="Times,serif" font-style="italic" font-size="14.00">stacking</text>
</g>
<g id="clust9" class="cluster">
<title>cluster_rassine</title>
<polygon fill="none" stroke="black" points="394,-542 394,-763 678,-763 678,-542 394,-542"/>
<text text-anchor="start" x="510" y="-748.8" font-family="Times,serif" font-style="italic" font-size="14.00">rassine</text>
</g>
<g id="clust10" class="cluster">
<title>cluster_matching</title>
<polygon fill="none" stroke="black" points="8,-93 8,-460 1014,-460 1014,-93 8,-93"/>
<text text-anchor="start" x="477.5" y="-445.8" font-family="Times,serif" font-style="italic" font-size="14.00">matching</text>
</g>
<!-- RAW/{name}.fits -->
<g id="node1" class="node">
<title>RAW/{name}.fits</title>
<text text-anchor="middle" x="584" y="-1688.3" font-family="Times,serif" font-size="14.00">RAW/{name}.fits</text>
</g>
<!-- preprocess_table -->
<g id="node15" class="node">
<title>preprocess_table</title>
<g id="a_node15"><a xlink:href="../cli/preprocess_table.html" xlink:title="preprocess_table" target="_top">
<polygon fill="none" stroke="black" points="471,-1626 333,-1626 333,-1590 471,-1590 471,-1626"/>
<text text-anchor="middle" x="402" y="-1604.3" font-family="Times,serif" font-size="14.00">preprocess_table</text>
</a>
</g>
</g>
<!-- RAW/{name}.fits&#45;&gt;preprocess_table -->
<g id="edge1" class="edge">
<title>RAW/{name}.fits&#45;&gt;preprocess_table</title>
<path fill="none" stroke="black" stroke-dasharray="5,2" d="M545.85,-1673.81C517.72,-1661.14 479.3,-1643.83 449.23,-1630.28"/>
<polygon fill="black" stroke="black" points="450.35,-1626.94 439.79,-1626.03 447.47,-1633.33 450.35,-1626.94"/>
</g>
<!-- preprocess_import -->
<g id="node16" class="node">
<title>preprocess_import</title>
<g id="a_node16"><a xlink:href="../cli/preprocess_import.html" xlink:title="preprocess_import" target="_top">
<polygon fill="none" stroke="black" points="568,-1480 418,-1480 418,-1444 568,-1444 568,-1480"/>
<text text-anchor="middle" x="493" y="-1458.3" font-family="Times,serif" font-size="14.00">preprocess_import</text>
</a>
</g>
</g>
<!-- RAW/{name}.fits&#45;&gt;preprocess_import -->
<g id="edge5" class="edge">
<title>RAW/{name}.fits&#45;&gt;preprocess_import</title>
<path fill="none" stroke="black" d="M586.58,-1673.96C590.69,-1640.99 595.5,-1567.21 566,-1516 558.95,-1503.77 547.82,-1493.58 536.35,-1485.51"/>
<polygon fill="black" stroke="black" points="538.27,-1482.59 528,-1480.02 534.43,-1488.44 538.27,-1482.59"/>
</g>
<!-- DACE_TABLE/Dace_extracted_table.csv -->
<g id="node2" class="node">
<title>DACE_TABLE/Dace_extracted_table.csv</title>
<g id="a_node2"><a xlink:href="../_autosummary/rassine.imports.data.DACE.html#rassine.imports.data.DACE" xlink:title="DACE_TABLE/Dace_extracted_table.csv&lt;br/&gt;&lt;font color=&quot;#444444&quot;&gt;rassine.imports.data.DACE&lt;/font&gt;" target="_top">
<text text-anchor="start" x="204.5" y="-1695.8" font-family="Times,serif" font-size="14.00">DACE_TABLE/Dace_extracted_table.csv</text>
<text text-anchor="start" x="248.5" y="-1680.8" font-family="Times,serif" font-size="14.00" fill="#444444">rassine.imports.data.DACE</text>
</a>
</g>
</g>
<!-- DACE_TABLE/Dace_extracted_table.csv&#45;&gt;preprocess_table -->
<g id="edge2" class="edge">
<title>DACE_TABLE/Dace_extracted_table.csv&#45;&gt;preprocess_table</title>
<path fill="none" stroke="black" d="M358.43,-1672.8C366.1,-1661.56 376.07,-1646.97 384.53,-1634.58"/>
<polygon fill="black" stroke="black" points="387.62,-1636.26 390.37,-1626.03 381.84,-1632.31 387.62,-1636.26"/>
</g>
<!-- PREPROCESSED/{name}.p (bis) -->
<g id="node3" class="node">
<title>PREPROCESSED/{name}.p (bis)</title>
<g id="a_node3"><a xlink:href="../_autosummary/rassine.imports.data.ReinterpolatedSpectrumPickle.html" xlink:title="PREPROCESSED/{name}.p&lt;br/&gt;&lt;font color=&quot;#444444&quot;&gt;rassine.imports.data.ReinterpolatedSpectrumPickle&lt;/font&gt;" target="_top">
<text text-anchor="start" x="203.5" y="-1170.8" font-family="Times,serif" font-size="14.00">PREPROCESSED/{name}.p</text>
<text text-anchor="start" x="117" y="-1155.8" font-family="Times,serif" font-size="14.00" fill="#444444">rassine.imports.data.ReinterpolatedSpectrumPickle</text>
</a>
</g>
</g>
<!-- stacking_stack -->
<g id="node20" class="node">
<title>stacking_stack</title>
<g id="a_node20"><a xlink:href="../cli/stacking_stack.html" xlink:title="stacking_stack" target="_top">
<polygon fill="none" stroke="black" points="674.5,-1038 553.5,-1038 553.5,-1002 674.5,-1002 674.5,-1038"/>
<text text-anchor="middle" x="614" y="-1016.3" font-family="Times,serif" font-size="14.00">stacking_stack</text>
</a>
</g>
</g>
<!-- PREPROCESSED/{name}.p (bis)&#45;&gt;stacking_stack -->
<g id="edge16" class="edge">
<title>PREPROCESSED/{name}.p (bis)&#45;&gt;stacking_stack</title>
<path fill="none" stroke="black" d="M341.76,-1147.93C399.22,-1121.14 506.8,-1070.98 568.11,-1042.39"/>
<polygon fill="black" stroke="black" points="569.59,-1045.57 577.18,-1038.17 566.63,-1039.22 569.59,-1045.57"/>
</g>
<!-- individual_reinterpolated.csv -->
<g id="node4" class="node">
<title>individual_reinterpolated.csv</title>
<g id="a_node4"><a xlink:href="../_autosummary/rassine.imports.data.IndividualReinterpolatedRow.html" xlink:title="individual_reinterpolated.csv&lt;br/&gt;&lt;font color=&quot;#444444&quot;&gt;rassine.imports.data.IndividualReinterpolatedRow&lt;/font&gt;" target="_top">
<text text-anchor="start" x="204" y="-1246.8" font-family="Times,serif" font-size="14.00">individual_reinterpolated.csv</text>
<text text-anchor="start" x="127.5" y="-1231.8" font-family="Times,serif" font-size="14.00" fill="#444444">rassine.imports.data.IndividualReinterpolatedRow</text>
</a>
</g>
</g>
<!-- stacking_create_groups -->
<g id="node19" class="node">
<title>stacking_create_groups</title>
<g id="a_node19"><a xlink:href="../cli/stacking_create_groups.html" xlink:title="stacking_create_groups" target="_top">
<polygon fill="none" stroke="black" points="771.5,-1185 586.5,-1185 586.5,-1149 771.5,-1149 771.5,-1185"/>
<text text-anchor="middle" x="679" y="-1163.3" font-family="Times,serif" font-size="14.00">stacking_create_groups</text>
</a>
</g>
</g>
<!-- individual_reinterpolated.csv&#45;&gt;stacking_create_groups -->
<g id="edge12" class="edge">
<title>individual_reinterpolated.csv&#45;&gt;stacking_create_groups</title>
<path fill="none" stroke="black" d="M496.73,-1224.2C511.09,-1221.8 525.32,-1219.08 539,-1216 568.9,-1209.28 601.32,-1198.4 627.43,-1188.7"/>
<polygon fill="black" stroke="black" points="628.99,-1191.85 637.11,-1185.05 626.52,-1185.3 628.99,-1191.85"/>
</g>
<!-- individual_reinterpolated.csv&#45;&gt;stacking_stack -->
<g id="edge15" class="edge">
<title>individual_reinterpolated.csv&#45;&gt;stacking_stack</title>
<path fill="none" stroke="black" d="M492.08,-1223.95C497.87,-1221.61 502.61,-1218.97 506,-1216 555.12,-1172.92 507.54,-1128.21 544,-1074 551.86,-1062.31 563.18,-1052.15 574.42,-1043.94"/>
<polygon fill="black" stroke="black" points="576.71,-1046.61 582.95,-1038.05 572.73,-1040.86 576.71,-1046.61"/>
</g>
<!-- stacked_basic.csv -->
<g id="node5" class="node">
<title>stacked_basic.csv</title>
<g id="a_node5"><a xlink:href="../_autosummary/rassine.stacking.data.StackedBasicRow.html" xlink:title="stacked_basic.csv&lt;br/&gt;&lt;font color=&quot;#444444&quot;&gt;rassine.stacking.data.StackedBasicRow&lt;/font&gt;" target="_top">
<text text-anchor="start" x="761.5" y="-950.8" font-family="Times,serif" font-size="14.00">stacked_basic.csv</text>
<text text-anchor="start" x="683.5" y="-935.8" font-family="Times,serif" font-size="14.00" fill="#444444">rassine.stacking.data.StackedBasicRow</text>
</a>
</g>
</g>
<!-- stacking_master_spectrum -->
<g id="node21" class="node">
<title>stacking_master_spectrum</title>
<g id="a_node21"><a xlink:href="../cli/stacking_master_spectrum.html" xlink:title="stacking_master_spectrum" target="_top">
<polygon fill="none" stroke="black" points="360,-889 152,-889 152,-853 360,-853 360,-889"/>
<text text-anchor="middle" x="256" y="-867.3" font-family="Times,serif" font-size="14.00">stacking_master_spectrum</text>
</a>
</g>
</g>
<!-- stacked_basic.csv&#45;&gt;stacking_master_spectrum -->
<g id="edge20" class="edge">
<title>stacked_basic.csv&#45;&gt;stacking_master_spectrum</title>
<path fill="none" stroke="black" d="M675.33,-928.62C672.53,-928.4 669.75,-928.19 667,-928 601.58,-923.4 436.14,-933.65 372,-920 346.37,-914.55 319.24,-903.63 297.66,-893.58"/>
<polygon fill="black" stroke="black" points="299,-890.35 288.47,-889.2 295.99,-896.66 299,-890.35"/>
</g>
<!-- rassine2 -->
<g id="node24" class="node">
<title>rassine2</title>
<g id="a_node24"><a xlink:href="../cli/rassine.html" xlink:title="rassine" target="_top">
<polygon fill="none" stroke="black" points="470,-586 402,-586 402,-550 470,-550 470,-586"/>
<text text-anchor="middle" x="436" y="-564.3" font-family="Times,serif" font-size="14.00">rassine</text>
</a>
</g>
</g>
<!-- stacked_basic.csv&#45;&gt;rassine2 -->
<g id="edge28" class="edge">
<title>stacked_basic.csv&#45;&gt;rassine2</title>
<path fill="none" stroke="black" d="M675.34,-928.57C672.54,-928.37 669.76,-928.18 667,-928 652.39,-927.06 150.94,-929.73 140,-920 99.48,-883.94 124,-853.25 124,-799 124,-799 124,-799 124,-713 124,-596.48 305.6,-573.94 391.71,-569.8"/>
<polygon fill="black" stroke="black" points="391.87,-573.29 401.72,-569.38 391.58,-566.3 391.87,-573.29"/>
</g>
<!-- matching_anchors_scan -->
<g id="node29" class="node">
<title>matching_anchors_scan</title>
<g id="a_node29"><a xlink:href="../cli/matching_anchors_scan.html" xlink:title="matching_anchors_scan" target="_top">
<polygon fill="none" stroke="black" points="851.5,-429 666.5,-429 666.5,-393 851.5,-393 851.5,-429"/>
<text text-anchor="middle" x="759" y="-407.3" font-family="Times,serif" font-size="14.00">matching_anchors_scan</text>
</a>
</g>
</g>
<!-- stacked_basic.csv&#45;&gt;matching_anchors_scan -->
<g id="edge30" class="edge">
<title>stacked_basic.csv&#45;&gt;matching_anchors_scan</title>
<path fill="none" stroke="black" d="M931.5,-927.84C937.02,-925.51 941.38,-922.9 944,-920 980.32,-879.86 958,-853.14 958,-799 958,-799 958,-799 958,-567 958,-522.43 971.29,-501.6 942,-468 921.6,-444.6 891.71,-430.82 861.98,-422.76"/>
<polygon fill="black" stroke="black" points="862.47,-419.27 851.92,-420.24 860.77,-426.06 862.47,-419.27"/>
</g>
<!-- matching_anchors_filter1 -->
<g id="node30" class="node">
<title>matching_anchors_filter1</title>
<g id="a_node30"><a xlink:href="../cli/matching_anchors_filter.html" xlink:title="matching_anchors_filter" target="_top">
<polygon fill="none" stroke="black" points="854,-283 666,-283 666,-247 854,-247 854,-283"/>
<text text-anchor="middle" x="760" y="-261.3" font-family="Times,serif" font-size="14.00">matching_anchors_filter</text>
</a>
</g>
</g>
<!-- stacked_basic.csv&#45;&gt;matching_anchors_filter1 -->
<g id="edge34" class="edge">
<title>stacked_basic.csv&#45;&gt;matching_anchors_filter1</title>
<path fill="none" stroke="black" d="M969.63,-927.89C974.94,-925.57 979.19,-922.95 982,-920 1019.33,-880.79 996,-853.14 996,-799 996,-799 996,-799 996,-410 996,-342.09 923.91,-305.26 859.42,-285.9"/>
<polygon fill="black" stroke="black" points="860.14,-282.46 849.56,-283.05 858.2,-289.19 860.14,-282.46"/>
</g>
<!-- matching_diff -->
<g id="node32" class="node">
<title>matching_diff</title>
<g id="a_node32"><a xlink:href="../cli/matching_diff.html" xlink:title="matching_diff" target="_top">
<polygon fill="none" stroke="black" points="925.5,-137 812.5,-137 812.5,-101 925.5,-101 925.5,-137"/>
<text text-anchor="middle" x="869" y="-115.3" font-family="Times,serif" font-size="14.00">matching_diff</text>
</a>
</g>
</g>
<!-- stacked_basic.csv&#45;&gt;matching_diff -->
<g id="edge44" class="edge">
<title>stacked_basic.csv&#45;&gt;matching_diff</title>
<path fill="none" stroke="black" d="M974.74,-937.58C995.31,-933.66 1012.1,-928.04 1020,-920 1057.95,-881.39 1034,-853.14 1034,-799 1034,-799 1034,-799 1034,-264 1034,-222.68 1042.06,-204.22 1015,-173 994.93,-149.85 963.93,-136.81 935.64,-129.47"/>
<polygon fill="black" stroke="black" points="936.31,-126.03 925.77,-127.1 934.68,-132.83 936.31,-126.03"/>
</g>
<!-- master_spectrum.csv -->
<g id="node6" class="node">
<title>master_spectrum.csv</title>
<g id="a_node6"><a xlink:href="../_autosummary/rassine.stacking.data.MasterRow.html" xlink:title="master_spectrum.csv&lt;br/&gt;&lt;font color=&quot;#444444&quot;&gt;rassine.stacking.data.MasterRow&lt;/font&gt;" target="_top">
<text text-anchor="start" x="435.5" y="-801.8" font-family="Times,serif" font-size="14.00">master_spectrum.csv</text>
<text text-anchor="start" x="392.5" y="-786.8" font-family="Times,serif" font-size="14.00" fill="#444444">rassine.stacking.data.MasterRow</text>
</a>
</g>
</g>
<!-- STACKED/{name}.p -->
<g id="node7" class="node">
<title>STACKED/{name}.p</title>
<g id="a_node7"><a xlink:href="../_autosummary/rassine.stacking.data.StackedPickle.html" xlink:title="STACKED/{name}.p&lt;br/&gt;&lt;font color=&quot;#444444&quot;&gt;rassine.stacking.data.StackedPickle&lt;/font&gt;" target="_top">
<text text-anchor="start" x="448" y="-950.8" font-family="Times,serif" font-size="14.00">STACKED/{name}.p</text>
<text text-anchor="start" x="392.5" y="-935.8" font-family="Times,serif" font-size="14.00" fill="#444444">rassine.stacking.data.StackedPickle</text>
</a>
</g>
</g>
<!-- STACKED/{name}.p&#45;&gt;stacking_master_spectrum -->
<g id="edge19" class="edge">
<title>STACKED/{name}.p&#45;&gt;stacking_master_spectrum</title>
<path fill="none" stroke="black" d="M403.32,-927.96C392.66,-925.58 382.09,-922.93 372,-920 347.95,-913.02 322.12,-902.63 300.95,-893.31"/>
<polygon fill="black" stroke="black" points="302.14,-890 291.58,-889.11 299.28,-896.39 302.14,-890"/>
</g>
<!-- STACKED/{name}.p&#45;&gt;rassine2 -->
<g id="edge26" class="edge">
<title>STACKED/{name}.p&#45;&gt;rassine2</title>
<path fill="none" stroke="black" d="M384.39,-945.5C272.9,-943.76 130.54,-937.98 110,-920 68.75,-883.89 86,-853.83 86,-799 86,-799 86,-799 86,-713 86,-671.17 79.03,-650.11 110,-622 150.58,-585.16 312.34,-573.79 391.67,-570.39"/>
<polygon fill="black" stroke="black" points="391.99,-573.88 401.84,-569.98 391.71,-566.88 391.99,-573.88"/>
</g>
<!-- MASTER/Master_spectrum_{tag}.p -->
<g id="node8" class="node">
<title>MASTER/Master_spectrum_{tag}.p</title>
<g id="a_node8"><a xlink:href="../_autosummary/rassine.stacking.data.MasterPickle.html" xlink:title="MASTER/Master_spectrum_{tag}.p&lt;br/&gt;&lt;font color=&quot;#444444&quot;&gt;rassine.stacking.data.MasterPickle&lt;/font&gt;" target="_top">
<text text-anchor="start" x="666" y="-801.8" font-family="Times,serif" font-size="14.00">MASTER/Master_spectrum_{tag}.p</text>
<text text-anchor="start" x="668.5" y="-786.8" font-family="Times,serif" font-size="14.00" fill="#444444">rassine.stacking.data.MasterPickle</text>
</a>
</g>
</g>
<!-- rassine1 -->
<g id="node23" class="node">
<title>rassine1</title>
<g id="a_node23"><a xlink:href="../cli/rassine.html" xlink:title="rassine" target="_top">
<polygon fill="none" stroke="black" points="670,-732 602,-732 602,-696 670,-696 670,-732"/>
<text text-anchor="middle" x="636" y="-710.3" font-family="Times,serif" font-size="14.00">rassine</text>
</a>
</g>
</g>
<!-- MASTER/Master_spectrum_{tag}.p&#45;&gt;rassine1 -->
<g id="edge23" class="edge">
<title>MASTER/Master_spectrum_{tag}.p&#45;&gt;rassine1</title>
<path fill="none" stroke="black" d="M758.93,-778.8C734.97,-766.36 703.09,-749.82 677.8,-736.69"/>
<polygon fill="black" stroke="black" points="679.3,-733.53 668.81,-732.03 676.07,-739.74 679.3,-733.53"/>
</g>
<!-- MASTER/RASSINE_Master_spectrum_{tag}.p -->
<g id="node9" class="node">
<title>MASTER/RASSINE_Master_spectrum_{tag}.p</title>
<g id="a_node9"><a xlink:href="../_autosummary/rassine.rassine.data.RassinePickle.html" xlink:title="MASTER/RASSINE_Master_spectrum_{tag}.p&lt;br/&gt;&lt;font color=&quot;#444444&quot;&gt;rassine.rassine.data.RassinePickle&lt;/font&gt;" target="_top">
<text text-anchor="start" x="593.5" y="-498.8" font-family="Times,serif" font-size="14.00">MASTER/RASSINE_Master_spectrum_{tag}.p</text>
<text text-anchor="start" x="634.5" y="-483.8" font-family="Times,serif" font-size="14.00" fill="#444444">rassine.rassine.data.RassinePickle</text>
</a>
</g>
</g>
<!-- MASTER/RASSINE_Master_spectrum_{tag}.p&#45;&gt;matching_anchors_scan -->
<g id="edge32" class="edge">
<title>MASTER/RASSINE_Master_spectrum_{tag}.p&#45;&gt;matching_anchors_scan</title>
<path fill="none" stroke="black" stroke-dasharray="5,2" d="M758.22,-475.8C758.35,-465 758.52,-451.1 758.67,-439.04"/>
<polygon fill="black" stroke="black" points="762.17,-439.07 758.79,-429.03 755.17,-438.98 762.17,-439.07"/>
</g>
<!-- matching_anchors_filter2 -->
<g id="node31" class="node">
<title>matching_anchors_filter2</title>
<g id="a_node31"><a xlink:href="../cli/matching_anchors_filter.html" xlink:title="matching_anchors_filter" target="_top">
<polygon fill="none" stroke="black" points="639,-283 451,-283 451,-247 639,-247 639,-283"/>
<text text-anchor="middle" x="545" y="-261.3" font-family="Times,serif" font-size="14.00">matching_anchors_filter</text>
</a>
</g>
</g>
<!-- MASTER/RASSINE_Master_spectrum_{tag}.p&#45;&gt;matching_anchors_filter2 -->
<g id="edge39" class="edge">
<title>MASTER/RASSINE_Master_spectrum_{tag}.p&#45;&gt;matching_anchors_filter2</title>
<path fill="none" stroke="black" d="M684.56,-475.96C675.04,-471.69 665.88,-466.44 658,-460 602.53,-414.63 568.46,-334.38 553.65,-292.74"/>
<polygon fill="black" stroke="black" points="556.95,-291.58 550.38,-283.27 550.34,-293.86 556.95,-291.58"/>
</g>
<!-- STACKED/RASSINE_{name}.p -->
<g id="node10" class="node">
<title>STACKED/RASSINE_{name}.p</title>
<g id="a_node10"><a xlink:href="../_autosummary/rassine.rassine.data.RassinePickle.html" xlink:title="STACKED/RASSINE_{name}.p&lt;br/&gt;&lt;font color=&quot;#444444&quot;&gt;rassine.rassine.data.RassinePickle&lt;/font&gt;" target="_top">
<text text-anchor="start" x="326" y="-498.8" font-family="Times,serif" font-size="14.00">STACKED/RASSINE_{name}.p</text>
<text text-anchor="start" x="312.5" y="-483.8" font-family="Times,serif" font-size="14.00" fill="#444444">rassine.rassine.data.RassinePickle</text>
</a>
</g>
</g>
<!-- STACKED/RASSINE_{name}.p&#45;&gt;matching_anchors_scan -->
<g id="edge31" class="edge">
<title>STACKED/RASSINE_{name}.p&#45;&gt;matching_anchors_scan</title>
<path fill="none" stroke="black" d="M507.28,-475.9C559.14,-462.74 629.27,-444.94 682.33,-431.46"/>
<polygon fill="black" stroke="black" points="683.2,-434.85 692.03,-429 681.48,-428.07 683.2,-434.85"/>
</g>
<!-- STACKED/RASSINE_{name}.p&#45;&gt;matching_anchors_filter1 -->
<g id="edge35" class="edge">
<title>STACKED/RASSINE_{name}.p&#45;&gt;matching_anchors_filter1</title>
<path fill="none" stroke="black" d="M448.22,-475.83C472.85,-440.58 531.94,-362.51 600,-319 622.2,-304.81 648.58,-294.04 673.45,-286.05"/>
<polygon fill="black" stroke="black" points="674.74,-289.31 683.26,-283.01 672.67,-282.62 674.74,-289.31"/>
</g>
<!-- STACKED/RASSINE_{name}.p (ter) -->
<g id="node11" class="node">
<title>STACKED/RASSINE_{name}.p (ter)</title>
<g id="a_node11"><a xlink:href="../_autosummary/rassine.matching.data.MatchingPickle.html" xlink:title="STACKED/RASSINE_{name}.p&lt;br/&gt;&lt;font color=&quot;#444444&quot;&gt;rassine.matching.data.MatchingPickle&lt;/font&gt;" target="_top">
<text text-anchor="start" x="759" y="-38.8" font-family="Times,serif" font-size="14.00">STACKED/RASSINE_{name}.p</text>
<text text-anchor="start" x="732" y="-23.8" font-family="Times,serif" font-size="14.00" fill="#444444">rassine.matching.data.MatchingPickle</text>
</a>
</g>
</g>
<!-- individual_basic.csv -->
<g id="node12" class="node">
<title>individual_basic.csv</title>
<g id="a_node12"><a xlink:href="../_autosummary/rassine.imports.data.IndividualBasicRow.html" xlink:title="individual_basic.csv&lt;br/&gt;&lt;font color=&quot;#444444&quot;&gt;rassine.imports.data.IndividualBasicRow&lt;/font&gt;" target="_top">
<text text-anchor="start" x="331" y="-1538.8" font-family="Times,serif" font-size="14.00">individual_basic.csv</text>
<text text-anchor="start" x="255.5" y="-1523.8" font-family="Times,serif" font-size="14.00" fill="#444444">rassine.imports.data.IndividualBasicRow</text>
</a>
</g>
</g>
<!-- individual_basic.csv&#45;&gt;preprocess_import -->
<g id="edge4" class="edge">
<title>individual_basic.csv&#45;&gt;preprocess_import</title>
<path fill="none" stroke="black" d="M425.43,-1515.72C436.9,-1506.77 450.84,-1495.9 463.06,-1486.36"/>
<polygon fill="black" stroke="black" points="465.48,-1488.91 471.21,-1480 461.17,-1483.4 465.48,-1488.91"/>
</g>
<!-- PREPROCESSED/{name}.p -->
<g id="node13" class="node">
<title>PREPROCESSED/{name}.p</title>
<g id="a_node13"><a xlink:href="../_autosummary/rassine.imports.data.PickledIndividualSpectrum.html" xlink:title="PREPROCESSED/{name}.p&lt;br/&gt;&lt;font color=&quot;#444444&quot;&gt;rassine.imports.data.PickledIndividualSpectrum&lt;/font&gt;" target="_top">
<text text-anchor="start" x="125.5" y="-1392.8" font-family="Times,serif" font-size="14.00">PREPROCESSED/{name}.p</text>
<text text-anchor="start" x="52" y="-1377.8" font-family="Times,serif" font-size="14.00" fill="#444444">rassine.imports.data.PickledIndividualSpectrum</text>
</a>
</g>
</g>
<!-- reinterpolate -->
<g id="node17" class="node">
<title>reinterpolate</title>
<g id="a_node17"><a xlink:href="../cli/reinterpolate.html" xlink:title="reinterpolate" target="_top">
<polygon fill="none" stroke="black" points="308,-1334 198,-1334 198,-1298 308,-1298 308,-1334"/>
<text text-anchor="middle" x="253" y="-1312.3" font-family="Times,serif" font-size="14.00">reinterpolate</text>
</a>
</g>
</g>
<!-- PREPROCESSED/{name}.p&#45;&gt;reinterpolate -->
<g id="edge9" class="edge">
<title>PREPROCESSED/{name}.p&#45;&gt;reinterpolate</title>
<path fill="none" stroke="black" d="M232.21,-1369.72C235.37,-1361.72 239.13,-1352.18 242.58,-1343.42"/>
<polygon fill="black" stroke="black" points="245.88,-1344.59 246.29,-1334 239.37,-1342.02 245.88,-1344.59"/>
</g>
<!-- individual_imported.csv -->
<g id="node14" class="node">
<title>individual_imported.csv</title>
<g id="a_node14"><a xlink:href="../_autosummary/rassine.imports.data.IndividualImportedRow.html" xlink:title="individual_imported.csv&lt;br/&gt;&lt;font color=&quot;#444444&quot;&gt;rassine.imports.data.IndividualImportedRow&lt;/font&gt;" target="_top">
<text text-anchor="start" x="507.5" y="-1392.8" font-family="Times,serif" font-size="14.00">individual_imported.csv</text>
<text text-anchor="start" x="432.5" y="-1377.8" font-family="Times,serif" font-size="14.00" fill="#444444">rassine.imports.data.IndividualImportedRow</text>
</a>
</g>
</g>
<!-- individual_imported.csv&#45;&gt;reinterpolate -->
<g id="edge8" class="edge">
<title>individual_imported.csv&#45;&gt;reinterpolate</title>
<path fill="none" stroke="black" d="M506.76,-1369.99C448.18,-1357.76 371.89,-1341.83 318.32,-1330.64"/>
<polygon fill="black" stroke="black" points="318.76,-1327.16 308.25,-1328.54 317.32,-1334.01 318.76,-1327.16"/>
</g>
<!-- preprocess_table&#45;&gt;individual_basic.csv -->
<g id="edge3" class="edge">
<title>preprocess_table&#45;&gt;individual_basic.csv</title>
<path fill="none" stroke="black" d="M402,-1589.81C402,-1582.11 402,-1572.82 402,-1564.15"/>
<polygon fill="black" stroke="black" points="405.5,-1564.02 402,-1554.02 398.5,-1564.02 405.5,-1564.02"/>
</g>
<!-- preprocess_import&#45;&gt;PREPROCESSED/{name}.p -->
<g id="edge6" class="edge">
<title>preprocess_import&#45;&gt;PREPROCESSED/{name}.p</title>
<path fill="none" stroke="black" d="M428.81,-1443.99C391.04,-1433.99 343.01,-1421.26 303.06,-1410.68"/>
<polygon fill="black" stroke="black" points="303.92,-1407.29 293.35,-1408.11 302.12,-1414.05 303.92,-1407.29"/>
</g>
<!-- preprocess_import&#45;&gt;individual_imported.csv -->
<g id="edge7" class="edge">
<title>preprocess_import&#45;&gt;individual_imported.csv</title>
<path fill="none" stroke="black" d="M516.95,-1443.99C529.58,-1435.02 545.3,-1423.87 559.15,-1414.03"/>
<polygon fill="black" stroke="black" points="561.37,-1416.75 567.49,-1408.11 557.31,-1411.04 561.37,-1416.75"/>
</g>
<!-- reinterpolate&#45;&gt;PREPROCESSED/{name}.p (bis) -->
<g id="edge10" class="edge">
<title>reinterpolate&#45;&gt;PREPROCESSED/{name}.p (bis)</title>
<path fill="none" stroke="black" d="M197.74,-1312.69C166.89,-1308.22 130.78,-1297.02 111,-1270 98.92,-1253.5 98.73,-1240.36 111,-1224 121.88,-1209.5 155.82,-1197.51 192.21,-1188.4"/>
<polygon fill="black" stroke="black" points="193.12,-1191.78 202.01,-1186.02 191.47,-1184.98 193.12,-1191.78"/>
</g>
<!-- reinterpolate&#45;&gt;individual_reinterpolated.csv -->
<g id="edge11" class="edge">
<title>reinterpolate&#45;&gt;individual_reinterpolated.csv</title>
<path fill="none" stroke="black" d="M266.31,-1297.81C272.74,-1289.52 280.59,-1279.39 287.74,-1270.16"/>
<polygon fill="black" stroke="black" points="290.68,-1272.07 294.04,-1262.02 285.15,-1267.78 290.68,-1272.07"/>
</g>
<!-- individual_group.csv -->
<g id="node18" class="node">
<title>individual_group.csv</title>
<g id="a_node18"><a xlink:href="../_autosummary/rassine.stacking.data.IndividualGroupRow.html" xlink:title="individual_group.csv&lt;br/&gt;&lt;font color=&quot;#444444&quot;&gt;rassine.stacking.data.IndividualGroupRow&lt;/font&gt;" target="_top">
<text text-anchor="start" x="639" y="-1096.8" font-family="Times,serif" font-size="14.00">individual_group.csv</text>
<text text-anchor="start" x="561" y="-1081.8" font-family="Times,serif" font-size="14.00" fill="#444444">rassine.stacking.data.IndividualGroupRow</text>
</a>
</g>
</g>
<!-- individual_group.csv&#45;&gt;stacking_stack -->
<g id="edge14" class="edge">
<title>individual_group.csv&#45;&gt;stacking_stack</title>
<path fill="none" stroke="black" d="M687.76,-1073.9C675.05,-1064.78 659.5,-1053.63 645.96,-1043.92"/>
<polygon fill="black" stroke="black" points="648,-1041.07 637.83,-1038.09 643.92,-1046.76 648,-1041.07"/>
</g>
<!-- stacking_create_groups&#45;&gt;individual_group.csv -->
<g id="edge13" class="edge">
<title>stacking_create_groups&#45;&gt;individual_group.csv</title>
<path fill="none" stroke="black" d="M687.06,-1148.94C690.93,-1140.73 695.68,-1130.68 700.04,-1121.43"/>
<polygon fill="black" stroke="black" points="703.3,-1122.74 704.41,-1112.2 696.97,-1119.75 703.3,-1122.74"/>
</g>
<!-- stacking_stack&#45;&gt;stacked_basic.csv -->
<g id="edge17" class="edge">
<title>stacking_stack&#45;&gt;stacked_basic.csv</title>
<path fill="none" stroke="black" d="M664.54,-1001.99C693.58,-992.22 730.34,-979.85 761.34,-969.42"/>
<polygon fill="black" stroke="black" points="762.82,-972.62 771.18,-966.11 760.59,-965.98 762.82,-972.62"/>
</g>
<!-- stacking_stack&#45;&gt;STACKED/{name}.p -->
<g id="edge18" class="edge">
<title>stacking_stack&#45;&gt;STACKED/{name}.p</title>
<path fill="none" stroke="black" d="M591.49,-1001.81C579.85,-992.93 565.44,-981.93 552.69,-972.2"/>
<polygon fill="black" stroke="black" points="554.68,-969.31 544.6,-966.02 550.43,-974.87 554.68,-969.31"/>
</g>
<!-- stacking_master_spectrum&#45;&gt;master_spectrum.csv -->
<g id="edge22" class="edge">
<title>stacking_master_spectrum&#45;&gt;master_spectrum.csv</title>
<path fill="none" stroke="black" d="M317.32,-852.99C353.17,-843.05 398.69,-830.42 436.71,-819.88"/>
<polygon fill="black" stroke="black" points="438.01,-823.15 446.71,-817.11 436.14,-816.41 438.01,-823.15"/>
</g>
<!-- stacking_master_spectrum&#45;&gt;MASTER/Master_spectrum_{tag}.p -->
<g id="edge21" class="edge">
<title>stacking_master_spectrum&#45;&gt;MASTER/Master_spectrum_{tag}.p</title>
<path fill="none" stroke="black" d="M329.1,-852.95C343.28,-850.01 358.06,-847.2 372,-845 491,-826.22 524.3,-830.59 647.57,-817.13"/>
<polygon fill="black" stroke="black" points="648.23,-820.58 657.78,-816 647.46,-813.63 648.23,-820.58"/>
</g>
<!-- anchor_Master_spectrum_{tag}.ini -->
<g id="node22" class="node">
<title>anchor_Master_spectrum_{tag}.ini</title>
<g id="a_node22"><a xlink:href="../cli/rassine.html" xlink:title="anchor_Master_spectrum_{tag}.ini&lt;br/&gt;&lt;font color=&quot;#444444&quot;&gt;Config INI for rassine CLI tool&lt;/font&gt;" target="_top">
<text text-anchor="start" x="410" y="-644.8" font-family="Times,serif" font-size="14.00">anchor_Master_spectrum_{tag}.ini</text>
<text text-anchor="start" x="428.5" y="-629.8" font-family="Times,serif" font-size="14.00" fill="#444444">Config INI for rassine CLI tool</text>
</a>
</g>
</g>
<!-- anchor_Master_spectrum_{tag}.ini&#45;&gt;rassine2 -->
<g id="edge27" class="edge">
<title>anchor_Master_spectrum_{tag}.ini&#45;&gt;rassine2</title>
<path fill="none" stroke="black" d="M510.51,-621.9C497.66,-612.78 481.96,-601.63 468.28,-591.92"/>
<polygon fill="black" stroke="black" points="470.25,-589.02 460.07,-586.09 466.2,-594.73 470.25,-589.02"/>
</g>
<!-- rassine1&#45;&gt;MASTER/RASSINE_Master_spectrum_{tag}.p -->
<g id="edge25" class="edge">
<title>rassine1&#45;&gt;MASTER/RASSINE_Master_spectrum_{tag}.p</title>
<path fill="none" stroke="black" d="M651.82,-695.63C660.46,-685.64 671,-672.61 679,-660 707.76,-614.65 733.15,-557.25 746.97,-523.78"/>
<polygon fill="black" stroke="black" points="750.34,-524.78 750.88,-514.19 743.86,-522.13 750.34,-524.78"/>
</g>
<!-- rassine1&#45;&gt;anchor_Master_spectrum_{tag}.ini -->
<g id="edge24" class="edge">
<title>rassine1&#45;&gt;anchor_Master_spectrum_{tag}.ini</title>
<path fill="none" stroke="black" d="M612.05,-695.99C599.42,-687.02 583.7,-675.87 569.85,-666.03"/>
<polygon fill="black" stroke="black" points="571.69,-663.04 561.51,-660.11 567.63,-668.75 571.69,-663.04"/>
</g>
<!-- rassine2&#45;&gt;STACKED/RASSINE_{name}.p -->
<g id="edge29" class="edge">
<title>rassine2&#45;&gt;STACKED/RASSINE_{name}.p</title>
<path fill="none" stroke="black" d="M436,-549.81C436,-542.11 436,-532.82 436,-524.15"/>
<polygon fill="black" stroke="black" points="439.5,-524.02 436,-514.02 432.5,-524.02 439.5,-524.02"/>
</g>
<!-- MASTER/Master_tool_{tag}.p -->
<g id="node25" class="node">
<title>MASTER/Master_tool_{tag}.p</title>
<g id="a_node25"><a xlink:href="../_autosummary/rassine.matching.data.MasterToolPickle.html" xlink:title="MASTER/Master_tool_{tag}.p&lt;br/&gt;&lt;font color=&quot;#444444&quot;&gt;rassine.matching.data.MasterToolPickle&lt;/font&gt;" target="_top">
<text text-anchor="start" x="652.5" y="-341.8" font-family="Times,serif" font-size="14.00">MASTER/Master_tool_{tag}.p</text>
<text text-anchor="start" x="616.5" y="-326.8" font-family="Times,serif" font-size="14.00" fill="#444444">rassine.matching.data.MasterToolPickle</text>
</a>
</g>
</g>
<!-- MASTER/Master_tool_{tag}.p&#45;&gt;matching_anchors_filter1 -->
<g id="edge36" class="edge">
<title>MASTER/Master_tool_{tag}.p&#45;&gt;matching_anchors_filter1</title>
<path fill="none" stroke="black" d="M760,-318.72C760,-310.97 760,-301.79 760,-293.27"/>
<polygon fill="black" stroke="black" points="763.5,-293 760,-283 756.5,-293 763.5,-293"/>
</g>
<!-- MASTER/Master_tool_{tag}.p&#45;&gt;matching_anchors_filter2 -->
<g id="edge40" class="edge">
<title>MASTER/Master_tool_{tag}.p&#45;&gt;matching_anchors_filter2</title>
<path fill="none" stroke="black" d="M705.47,-318.99C675.27,-309.02 637.64,-296.59 606.41,-286.28"/>
<polygon fill="black" stroke="black" points="607.11,-282.82 596.51,-283.01 604.91,-289.47 607.11,-282.82"/>
</g>
<!-- MASTER/RASSINE_Master_spectrum_{tag}.p (bis) -->
<g id="node26" class="node">
<title>MASTER/RASSINE_Master_spectrum_{tag}.p (bis)</title>
<g id="a_node26"><a xlink:href="../_autosummary/rassine.matching.data.AnchorPickle.html" xlink:title="MASTER/RASSINE_Master_spectrum_{tag}.p&lt;br/&gt;&lt;font color=&quot;#444444&quot;&gt;rassine.matching.data.AnchorPickle&lt;/font&gt;" target="_top">
<text text-anchor="start" x="23.5" y="-195.8" font-family="Times,serif" font-size="14.00">MASTER/RASSINE_Master_spectrum_{tag}.p</text>
<text text-anchor="start" x="59.5" y="-180.8" font-family="Times,serif" font-size="14.00" fill="#444444">rassine.matching.data.AnchorPickle</text>
</a>
</g>
</g>
<!-- MASTER/RASSINE_Master_spectrum_{tag}.p (bis)&#45;&gt;matching_diff -->
<g id="edge43" class="edge">
<title>MASTER/RASSINE_Master_spectrum_{tag}.p (bis)&#45;&gt;matching_diff</title>
<path fill="none" stroke="black" d="M360.73,-172.99C504.16,-158.04 700.55,-137.56 802.1,-126.98"/>
<polygon fill="black" stroke="black" points="802.64,-130.44 812.22,-125.92 801.91,-123.48 802.64,-130.44"/>
</g>
<!-- STACKED/RASSINE_{name}.p (bis) -->
<g id="node27" class="node">
<title>STACKED/RASSINE_{name}.p (bis)</title>
<g id="a_node27"><a xlink:href="../_autosummary/rassine.matching.data.AnchorPickle.html" xlink:title="STACKED/RASSINE_{name}.p&lt;br/&gt;&lt;font color=&quot;#444444&quot;&gt;rassine.matching.data.AnchorPickle&lt;/font&gt;" target="_top">
<text text-anchor="start" x="759" y="-195.8" font-family="Times,serif" font-size="14.00">STACKED/RASSINE_{name}.p</text>
<text text-anchor="start" x="740.5" y="-180.8" font-family="Times,serif" font-size="14.00" fill="#444444">rassine.matching.data.AnchorPickle</text>
</a>
</g>
</g>
<!-- STACKED/RASSINE_{name}.p (bis)&#45;&gt;matching_diff -->
<g id="edge45" class="edge">
<title>STACKED/RASSINE_{name}.p (bis)&#45;&gt;matching_diff</title>
<path fill="none" stroke="black" d="M869,-172.72C869,-164.97 869,-155.79 869,-147.27"/>
<polygon fill="black" stroke="black" points="872.5,-147 869,-137 865.5,-147 872.5,-147"/>
</g>
<!-- matching_anchors.csv -->
<g id="node28" class="node">
<title>matching_anchors.csv</title>
<g id="a_node28"><a xlink:href="../_autosummary/rassine.matching.data.MatchingAnchorsRow.html" xlink:title="matching_anchors.csv&lt;br/&gt;&lt;font color=&quot;#444444&quot;&gt;rassine.matching.data.MatchingAnchorsRow&lt;/font&gt;" target="_top">
<text text-anchor="start" x="467" y="-195.8" font-family="Times,serif" font-size="14.00">matching_anchors.csv</text>
<text text-anchor="start" x="386" y="-180.8" font-family="Times,serif" font-size="14.00" fill="#444444">rassine.matching.data.MatchingAnchorsRow</text>
</a>
</g>
</g>
<!-- matching_anchors_scan&#45;&gt;MASTER/Master_tool_{tag}.p -->
<g id="edge33" class="edge">
<title>matching_anchors_scan&#45;&gt;MASTER/Master_tool_{tag}.p</title>
<path fill="none" stroke="black" d="M759.24,-392.81C759.35,-385.11 759.48,-375.82 759.6,-367.15"/>
<polygon fill="black" stroke="black" points="763.1,-367.07 759.75,-357.02 756.11,-366.97 763.1,-367.07"/>
</g>
<!-- matching_anchors_filter1&#45;&gt;STACKED/RASSINE_{name}.p (bis) -->
<g id="edge37" class="edge">
<title>matching_anchors_filter1&#45;&gt;STACKED/RASSINE_{name}.p (bis)</title>
<path fill="none" stroke="black" d="M786.11,-246.99C800.01,-237.94 817.32,-226.66 832.53,-216.75"/>
<polygon fill="black" stroke="black" points="834.73,-219.5 841.2,-211.11 830.91,-213.63 834.73,-219.5"/>
</g>
<!-- matching_anchors_filter1&#45;&gt;matching_anchors.csv -->
<g id="edge38" class="edge">
<title>matching_anchors_filter1&#45;&gt;matching_anchors.csv</title>
<path fill="none" stroke="black" d="M708.74,-246.99C679.16,-237.18 641.69,-224.75 610.16,-214.29"/>
<polygon fill="black" stroke="black" points="611.17,-210.94 600.58,-211.11 608.97,-217.58 611.17,-210.94"/>
</g>
<!-- matching_anchors_filter2&#45;&gt;MASTER/RASSINE_Master_spectrum_{tag}.p (bis) -->
<g id="edge41" class="edge">
<title>matching_anchors_filter2&#45;&gt;MASTER/RASSINE_Master_spectrum_{tag}.p (bis)</title>
<path fill="none" stroke="black" d="M459.49,-246.99C408.13,-236.78 342.51,-223.73 288.65,-213.02"/>
<polygon fill="black" stroke="black" points="289.23,-209.56 278.74,-211.05 287.86,-216.43 289.23,-209.56"/>
</g>
<!-- matching_anchors_filter2&#45;&gt;matching_anchors.csv -->
<g id="edge42" class="edge">
<title>matching_anchors_filter2&#45;&gt;matching_anchors.csv</title>
<path fill="none" stroke="black" d="M545.24,-246.81C545.35,-239.11 545.48,-229.82 545.6,-221.15"/>
<polygon fill="black" stroke="black" points="549.1,-221.07 545.75,-211.02 542.11,-220.97 549.1,-221.07"/>
</g>
<!-- matching_diff&#45;&gt;STACKED/RASSINE_{name}.p (ter) -->
<g id="edge46" class="edge">
<title>matching_diff&#45;&gt;STACKED/RASSINE_{name}.p (ter)</title>
<path fill="none" stroke="black" d="M869,-100.61C869,-90.07 869,-76.36 869,-64.29"/>
<polygon fill="black" stroke="black" points="872.5,-64.22 869,-54.22 865.5,-64.22 872.5,-64.22"/>
</g>
</g>
</svg>
